<svg xmlns="http://www.w3.org/2000/svg" style="display: none;"><symbol id="tripadvisor-logotype" viewBox="0 0 94 94"><title>tripadvisor-logotype</title><path d="M53.262,36.059c3.471-3.184,7.605-4.855,12.297-5.209c-5.566-2.475-11.438-3.525-17.48-3.643 c-6.865-0.135-13.546,0.877-19.926,3.553c4.771,0.291,8.96,1.953,12.5,5.174c3.531,3.213,5.603,7.221,6.354,11.936 C47.779,43.209,49.794,39.238,53.262,36.059z"/><path d="M66.6,44.002c-3.519,0-6.382,2.832-6.396,6.322c-0.013,3.477,2.864,6.369,6.351,6.379 c3.489,0.012,6.357-2.857,6.355-6.352C72.908,46.85,70.076,44.002,66.6,44.002z M66.6,53.568c-1.805,0-3.254-1.424-3.25-3.189 c0.004-1.834,1.412-3.25,3.229-3.252c1.781,0,3.238,1.459,3.223,3.229C69.783,52.129,68.35,53.568,66.6,53.568z"/><path d="M27.372,34.855c-8.443-0.074-15.805,6.975-15.657,15.95c0.137,8.372,7.037,15.467,15.832,15.393 c8.602-0.072,15.517-7.098,15.533-15.604C43.093,41.857,36.096,34.855,27.372,34.855z M27.626,60.068 c-5.659,0.258-10.224-4.252-10.212-9.729c0.011-5.549,4.582-9.793,9.752-9.699c5.369-0.006,9.727,4.33,9.711,9.695 C36.863,55.768,32.583,59.842,27.626,60.068z"/><path d="M27.08,44.002c-3.432,0.008-6.307,2.902-6.298,6.346c0.009,3.484,2.88,6.348,6.374,6.357 c3.473,0.008,6.347-2.883,6.34-6.377C33.485,46.805,30.635,43.996,27.08,44.002z M27.158,53.602 c-1.84,0.002-3.263-1.42-3.261-3.271c0-1.817,1.419-3.229,3.252-3.229c1.808-0.002,3.259,1.438,3.267,3.241 C30.423,52.131,28.957,53.596,27.158,53.602z"/><path d="M66.27,34.918C57.698,35.094,50.99,42,50.913,50.545c0,8.68,7.042,15.771,15.69,15.738 c8.684-0.031,15.693-6.922,15.688-15.699C82.285,41.539,74.949,34.74,66.27,34.918z M66.977,60.07 c-5.638,0.217-10.146-4.275-10.145-9.721c0.002-5.509,4.545-9.802,9.74-9.709c5.373-0.01,9.725,4.318,9.725,9.684 C76.297,55.713,72.02,59.877,66.977,60.07z"/><path d="M89,0H5C2.238,0,0,2.238,0,5v84c0,2.762,2.238,5,5,5h84c2.762,0,5-2.238,5-5V5C94,2.238,91.762,0,89,0z M85.693,55.33 c-1.26,5.127-4.197,9.123-8.664,11.953c-3.19,2.025-6.717,2.988-10.481,3.008c-1.583,0.01-3.157-0.203-4.702-0.602 c-3.768-0.978-6.996-2.855-9.658-5.699c-0.353-0.371-0.682-0.762-1.056-1.186c-1.407,2.098-2.792,4.159-4.21,6.276 c-1.412-2.11-2.779-4.154-4.142-6.188c-0.093,0.049-0.12,0.056-0.139,0.072c-0.03,0.025-0.059,0.057-0.082,0.086 c-3.219,3.801-7.267,6.131-12.2,6.91c-2.744,0.436-5.461,0.279-8.125-0.455c-3.778-1.037-6.988-3.031-9.581-5.973 c-2.534-2.875-4.11-6.211-4.701-10.006c-0.678-3.543,0.147-6.955,0.354-7.785c0.597-2.408,1.636-4.619,3.063-6.654 c0.101-0.145,0.135-0.398,0.087-0.57c-0.582-2.137-1.584-4.078-2.76-5.939c-0.298-0.473-0.656-0.91-0.986-1.363 c0-0.053,0-0.105,0-0.16c0.067,0.01,0.131,0.021,0.197,0.021c3.953,0.002,7.904,0.004,11.859-0.004 c0.171,0,0.363-0.07,0.509-0.166c2.777-1.781,5.737-3.193,8.847-4.293c2.24-0.789,4.53-1.406,6.865-1.859 c2.261-0.438,4.533-0.746,6.829-0.896c5.6-0.432,10.073,0.16,13.051,0.576c2.193,0.311,4.344,0.861,6.468,1.516 c3.706,1.141,7.203,2.727,10.493,4.783c0.229,0.141,0.535,0.232,0.804,0.232c3.863,0.016,7.726,0.01,11.587,0.014 c0.311,0,0.62,0.031,0.932,0.049c0,0.076,0.012,0.107-0.002,0.125c-0.18,0.279-0.363,0.553-0.543,0.828 c-1.311,2.01-2.431,4.113-3.092,6.438c-0.072,0.25-0.089,0.459,0.082,0.703C86.035,44.063,87.131,49.484,85.693,55.33z"/></symbol><symbol id="instagram-social-network-logo-of-photo-camera" viewBox="0 0 97.395 97.395"><title>instagram-social-network-logo-of-photo-camera</title><path d="M12.501,0h72.393c6.875,0,12.5,5.09,12.5,12.5v72.395c0,7.41-5.625,12.5-12.5,12.5H12.501C5.624,97.395,0,92.305,0,84.895 V12.5C0,5.09,5.624,0,12.501,0L12.501,0z M70.948,10.821c-2.412,0-4.383,1.972-4.383,4.385v10.495c0,2.412,1.971,4.385,4.383,4.385 h11.008c2.412,0,4.385-1.973,4.385-4.385V15.206c0-2.413-1.973-4.385-4.385-4.385H70.948L70.948,10.821z M86.387,41.188h-8.572 c0.811,2.648,1.25,5.453,1.25,8.355c0,16.2-13.556,29.332-30.275,29.332c-16.718,0-30.272-13.132-30.272-29.332 c0-2.904,0.438-5.708,1.25-8.355h-8.945v41.141c0,2.129,1.742,3.872,3.872,3.872h67.822c2.13,0,3.872-1.742,3.872-3.872V41.188 H86.387z M48.789,29.533c-10.802,0-19.56,8.485-19.56,18.953c0,10.468,8.758,18.953,19.56,18.953 c10.803,0,19.562-8.485,19.562-18.953C68.351,38.018,59.593,29.533,48.789,29.533z"/></symbol><symbol id="facebook-logo" viewBox="0 0 90 90"><title>facebook-logo</title><path id="Facebook__x28_alt_x29_" d="M90,15.001C90,7.119,82.884,0,75,0H15C7.116,0,0,7.119,0,15.001v59.998 C0,82.881,7.116,90,15.001,90H45V56H34V41h11v-5.844C45,25.077,52.568,16,61.875,16H74v15H61.875C60.548,31,59,32.611,59,35.024V41 h15v15H59v34h16c7.884,0,15-7.119,15-15.001V15.001z"/></symbol></svg>